# xmcd
#
# Track frame offsets: 
#        150
#        12202
#        26125
#        40538
#        54993
#        67294
#        80411
#        90927
#        109055
#        122655
#        134271
#        146060
#        158469
#        170964
#
# Disc length: 2421 seconds
#
# Revision: 0
# Processed by: cddbd v1.5.2PL0 Copyright (c) Steve Scherf et al.
# Submitted via: ExactAudioCopy v0.95b3
#
DISCID=b509730e
DTITLE=Dolly Parton - Dolly Parton Country Superstar
DYEAR=1900
DGENRE=Country
TTITLE0=Jolene
TTITLE1=I Will Always Love You
TTITLE2=We Used To
TTITLE3=Harper Valley PTA
TTITLE4=D.I.V.O.R.C.E
TTITLE5=Here You Come Again
TTITLE6=Lovin' You
TTITLE7=Do I Ever Cross Your Mind?
TTITLE8=Two Doors Down
TTITLE9=Hold Me
TTITLE10=It's My Time
TTITLE11=In the Ghetto
TTITLE12=Mama Say A Prayer
TTITLE13=Love Is Like A Butterfly
EXTD=
EXTT0=
EXTT1=
EXTT2=
EXTT3=
EXTT4=
EXTT5=
EXTT6=
EXTT7=
EXTT8=
EXTT9=
EXTT10=
EXTT11=
EXTT12=
EXTT13=
PLAYORDER=
